<?xml version="1.0" encoding="UTF-8" standalone="no"?>
<!DOCTYPE svg PUBLIC "-//W3C//DTD SVG 1.1//EN"
 "http://www.w3.org/Graphics/SVG/1.1/DTD/svg11.dtd">
<!-- Generated by graphviz version 2.43.0 (0)
 -->
<!-- Title: g Pages: 1 -->
<svg width="291pt" height="392pt"
 viewBox="0.00 0.00 290.50 392.00" xmlns="http://www.w3.org/2000/svg" xmlns:xlink="http://www.w3.org/1999/xlink">
<g id="graph0" class="graph" transform="scale(1 1) rotate(0) translate(4 388)">
<title>g</title>
<polygon fill="white" stroke="transparent" points="-4,4 -4,-388 286.5,-388 286.5,4 -4,4"/>
<!-- node0x603000000040 -->
<g id="node1" class="node">
<title>node0x603000000040</title>
<path fill="#ffffff" stroke="#cccccc" d="M178,-384C178,-384 104,-384 104,-384 98,-384 92,-378 92,-372 92,-372 92,-360 92,-360 92,-354 98,-348 104,-348 104,-348 178,-348 178,-348 184,-348 190,-354 190,-360 190,-360 190,-372 190,-372 190,-378 184,-384 178,-384"/>
<text text-anchor="middle" x="141" y="-362.3" font-family="Times,serif" font-size="14.00" fill="#000000">Животное?</text>
</g>
<!-- node0x6030000000a0 -->
<g id="node2" class="node">
<title>node0x6030000000a0</title>
<path fill="#ffffff" stroke="#cccccc" d="M109.5,-297C109.5,-297 64.5,-297 64.5,-297 58.5,-297 52.5,-291 52.5,-285 52.5,-285 52.5,-273 52.5,-273 52.5,-267 58.5,-261 64.5,-261 64.5,-261 109.5,-261 109.5,-261 115.5,-261 121.5,-267 121.5,-273 121.5,-273 121.5,-285 121.5,-285 121.5,-291 115.5,-297 109.5,-297"/>
<text text-anchor="middle" x="87" y="-275.3" font-family="Times,serif" font-size="14.00" fill="#000000">фачит?</text>
</g>
<!-- node0x603000000040&#45;&gt;node0x6030000000a0 -->
<g id="edge7" class="edge">
<title>node0x603000000040&#45;&gt;node0x6030000000a0</title>
<path fill="none" stroke="#000000" d="M130.07,-347.8C122.39,-335.7 111.97,-319.3 103.31,-305.67"/>
<polygon fill="#000000" stroke="#000000" points="106.23,-303.74 97.91,-297.18 100.32,-307.49 106.23,-303.74"/>
<text text-anchor="middle" x="130.5" y="-318.8" font-family="Times,serif" font-size="14.00">нет</text>
</g>
<!-- node0x603000000250 -->
<g id="node9" class="node">
<title>node0x603000000250</title>
<path fill="#ffffff" stroke="#cccccc" d="M236.5,-297C236.5,-297 151.5,-297 151.5,-297 145.5,-297 139.5,-291 139.5,-285 139.5,-285 139.5,-273 139.5,-273 139.5,-267 145.5,-261 151.5,-261 151.5,-261 236.5,-261 236.5,-261 242.5,-261 248.5,-267 248.5,-273 248.5,-273 248.5,-285 248.5,-285 248.5,-291 242.5,-297 236.5,-297"/>
<text text-anchor="middle" x="194" y="-275.3" font-family="Times,serif" font-size="14.00" fill="#000000">Полторашка</text>
</g>
<!-- node0x603000000040&#45;&gt;node0x603000000250 -->
<g id="edge8" class="edge">
<title>node0x603000000040&#45;&gt;node0x603000000250</title>
<path fill="none" stroke="#000000" d="M151.73,-347.8C159.27,-335.7 169.49,-319.3 178,-305.67"/>
<polygon fill="#000000" stroke="#000000" points="180.97,-307.51 183.29,-297.18 175.03,-303.81 180.97,-307.51"/>
<text text-anchor="middle" x="179.5" y="-318.8" font-family="Times,serif" font-size="14.00">да</text>
</g>
<!-- node0x6030000000d0 -->
<g id="node3" class="node">
<title>node0x6030000000d0</title>
<path fill="#ffffff" stroke="#cccccc" d="M95,-210C95,-210 31,-210 31,-210 25,-210 19,-204 19,-198 19,-198 19,-186 19,-186 19,-180 25,-174 31,-174 31,-174 95,-174 95,-174 101,-174 107,-180 107,-186 107,-186 107,-198 107,-198 107,-204 101,-210 95,-210"/>
<text text-anchor="middle" x="63" y="-188.3" font-family="Times,serif" font-size="14.00" fill="#000000">Петрович</text>
</g>
<!-- node0x6030000000a0&#45;&gt;node0x6030000000d0 -->
<g id="edge1" class="edge">
<title>node0x6030000000a0&#45;&gt;node0x6030000000d0</title>
<path fill="none" stroke="#000000" d="M82.14,-260.8C78.83,-249.05 74.36,-233.24 70.58,-219.84"/>
<polygon fill="#000000" stroke="#000000" points="73.94,-218.85 67.85,-210.18 67.2,-220.75 73.94,-218.85"/>
<text text-anchor="middle" x="89.5" y="-231.8" font-family="Times,serif" font-size="14.00">нет</text>
</g>
<!-- node0x603000000130 -->
<g id="node4" class="node">
<title>node0x603000000130</title>
<path fill="#ffffff" stroke="#cccccc" d="M205,-210C205,-210 137,-210 137,-210 131,-210 125,-204 125,-198 125,-198 125,-186 125,-186 125,-180 131,-174 137,-174 137,-174 205,-174 205,-174 211,-174 217,-180 217,-186 217,-186 217,-198 217,-198 217,-204 211,-210 205,-210"/>
<text text-anchor="middle" x="171" y="-188.3" font-family="Times,serif" font-size="14.00" fill="#000000">младший?</text>
</g>
<!-- node0x6030000000a0&#45;&gt;node0x603000000130 -->
<g id="edge6" class="edge">
<title>node0x6030000000a0&#45;&gt;node0x603000000130</title>
<path fill="none" stroke="#000000" d="M104,-260.8C116.3,-248.36 133.09,-231.36 146.78,-217.5"/>
<polygon fill="#000000" stroke="#000000" points="149.49,-219.75 154.03,-210.18 144.51,-214.83 149.49,-219.75"/>
<text text-anchor="middle" x="143.5" y="-231.8" font-family="Times,serif" font-size="14.00">да</text>
</g>
<!-- node0x603000000160 -->
<g id="node5" class="node">
<title>node0x603000000160</title>
<path fill="#ffffff" stroke="#cccccc" d="M117,-123C117,-123 55,-123 55,-123 49,-123 43,-117 43,-111 43,-111 43,-99 43,-99 43,-93 49,-87 55,-87 55,-87 117,-87 117,-87 123,-87 129,-93 129,-99 129,-99 129,-111 129,-111 129,-117 123,-123 117,-123"/>
<text text-anchor="middle" x="86" y="-101.3" font-family="Times,serif" font-size="14.00" fill="#000000">высокий?</text>
</g>
<!-- node0x603000000130&#45;&gt;node0x603000000160 -->
<g id="edge4" class="edge">
<title>node0x603000000130&#45;&gt;node0x603000000160</title>
<path fill="none" stroke="#000000" d="M153.8,-173.8C141.36,-161.36 124.36,-144.36 110.5,-130.5"/>
<polygon fill="#000000" stroke="#000000" points="112.72,-127.77 103.18,-123.18 107.77,-132.72 112.72,-127.77"/>
<text text-anchor="middle" x="146.5" y="-144.8" font-family="Times,serif" font-size="14.00">нет</text>
</g>
<!-- node0x6030000001f0 -->
<g id="node8" class="node">
<title>node0x6030000001f0</title>
<path fill="#ffffff" stroke="#cccccc" d="M270.5,-123C270.5,-123 159.5,-123 159.5,-123 153.5,-123 147.5,-117 147.5,-111 147.5,-111 147.5,-99 147.5,-99 147.5,-93 153.5,-87 159.5,-87 159.5,-87 270.5,-87 270.5,-87 276.5,-87 282.5,-93 282.5,-99 282.5,-99 282.5,-111 282.5,-111 282.5,-117 276.5,-123 270.5,-123"/>
<text text-anchor="middle" x="215" y="-101.3" font-family="Times,serif" font-size="14.00" fill="#000000">Умнов младший</text>
</g>
<!-- node0x603000000130&#45;&gt;node0x6030000001f0 -->
<g id="edge5" class="edge">
<title>node0x603000000130&#45;&gt;node0x6030000001f0</title>
<path fill="none" stroke="#000000" d="M179.9,-173.8C186.11,-161.82 194.49,-145.62 201.51,-132.06"/>
<polygon fill="#000000" stroke="#000000" points="204.62,-133.67 206.11,-123.18 198.4,-130.45 204.62,-133.67"/>
<text text-anchor="middle" x="204.5" y="-144.8" font-family="Times,serif" font-size="14.00">да</text>
</g>
<!-- node0x603000000190 -->
<g id="node6" class="node">
<title>node0x603000000190</title>
<path fill="#ffffff" stroke="#cccccc" d="M70,-36C70,-36 12,-36 12,-36 6,-36 0,-30 0,-24 0,-24 0,-12 0,-12 0,-6 6,0 12,0 12,0 70,0 70,0 76,0 82,-6 82,-12 82,-12 82,-24 82,-24 82,-30 76,-36 70,-36"/>
<text text-anchor="middle" x="41" y="-14.3" font-family="Times,serif" font-size="14.00" fill="#000000">Терешин</text>
</g>
<!-- node0x603000000160&#45;&gt;node0x603000000190 -->
<g id="edge2" class="edge">
<title>node0x603000000160&#45;&gt;node0x603000000190</title>
<path fill="none" stroke="#000000" d="M76.89,-86.8C70.55,-74.82 61.97,-58.62 54.79,-45.06"/>
<polygon fill="#000000" stroke="#000000" points="57.87,-43.38 50.09,-36.18 51.68,-46.65 57.87,-43.38"/>
<text text-anchor="middle" x="79.5" y="-57.8" font-family="Times,serif" font-size="14.00">нет</text>
</g>
<!-- node0x6030000001c0 -->
<g id="node7" class="node">
<title>node0x6030000001c0</title>
<path fill="#ffffff" stroke="#cccccc" d="M151.5,-36C151.5,-36 112.5,-36 112.5,-36 106.5,-36 100.5,-30 100.5,-24 100.5,-24 100.5,-12 100.5,-12 100.5,-6 106.5,0 112.5,0 112.5,0 151.5,0 151.5,0 157.5,0 163.5,-6 163.5,-12 163.5,-12 163.5,-24 163.5,-24 163.5,-30 157.5,-36 151.5,-36"/>
<text text-anchor="middle" x="132" y="-14.3" font-family="Times,serif" font-size="14.00" fill="#000000">Дидин</text>
</g>
<!-- node0x603000000160&#45;&gt;node0x6030000001c0 -->
<g id="edge3" class="edge">
<title>node0x603000000160&#45;&gt;node0x6030000001c0</title>
<path fill="none" stroke="#000000" d="M95.31,-86.8C101.79,-74.82 110.56,-58.62 117.9,-45.06"/>
<polygon fill="#000000" stroke="#000000" points="121.02,-46.64 122.71,-36.18 114.87,-43.3 121.02,-46.64"/>
<text text-anchor="middle" x="120.5" y="-57.8" font-family="Times,serif" font-size="14.00">да</text>
</g>
</g>
</svg>
