<?xml version="1.0" encoding="UTF-8" standalone="no"?>
<!DOCTYPE svg PUBLIC "-//W3C//DTD SVG 1.1//EN"
 "http://www.w3.org/Graphics/SVG/1.1/DTD/svg11.dtd">
<!-- Generated by graphviz version 2.43.0 (0)
 -->
<!-- Title: g Pages: 1 -->
<svg width="270pt" height="131pt"
 viewBox="0.00 0.00 270.00 131.00" xmlns="http://www.w3.org/2000/svg" xmlns:xlink="http://www.w3.org/1999/xlink">
<g id="graph0" class="graph" transform="scale(1 1) rotate(0) translate(4 127)">
<title>g</title>
<polygon fill="white" stroke="transparent" points="-4,4 -4,-127 266,-127 266,4 -4,4"/>
<!-- node0x603000000040 -->
<g id="node1" class="node">
<title>node0x603000000040</title>
<path fill="#ffffff" stroke="#cccccc" d="M147,-123C147,-123 102,-123 102,-123 96,-123 90,-117 90,-111 90,-111 90,-99 90,-99 90,-93 96,-87 102,-87 102,-87 147,-87 147,-87 153,-87 159,-93 159,-99 159,-99 159,-111 159,-111 159,-117 153,-123 147,-123"/>
<text text-anchor="middle" x="124.5" y="-101.3" font-family="Times,serif" font-size="14.00" fill="#000000">фачит?</text>
</g>
<!-- node0x603000000070 -->
<g id="node2" class="node">
<title>node0x603000000070</title>
<path fill="#ffffff" stroke="#cccccc" d="M97,-36C97,-36 12,-36 12,-36 6,-36 0,-30 0,-24 0,-24 0,-12 0,-12 0,-6 6,0 12,0 12,0 97,0 97,0 103,0 109,-6 109,-12 109,-12 109,-24 109,-24 109,-30 103,-36 97,-36"/>
<text text-anchor="middle" x="54.5" y="-14.3" font-family="Times,serif" font-size="14.00" fill="#000000">Полторашка</text>
</g>
<!-- node0x603000000040&#45;&gt;node0x603000000070 -->
<g id="edge1" class="edge">
<title>node0x603000000040&#45;&gt;node0x603000000070</title>
<path fill="none" stroke="#000000" d="M110.33,-86.8C100.28,-74.59 86.61,-57.99 75.32,-44.28"/>
<polygon fill="#000000" stroke="#000000" points="77.7,-41.67 68.64,-36.18 72.3,-46.12 77.7,-41.67"/>
<text text-anchor="middle" x="107" y="-57.8" font-family="Times,serif" font-size="14.00">нет</text>
</g>
<!-- node0x6030000000d0 -->
<g id="node3" class="node">
<title>node0x6030000000d0</title>
<path fill="#ffffff" stroke="#cccccc" d="M250,-36C250,-36 139,-36 139,-36 133,-36 127,-30 127,-24 127,-24 127,-12 127,-12 127,-6 133,0 139,0 139,0 250,0 250,0 256,0 262,-6 262,-12 262,-12 262,-24 262,-24 262,-30 256,-36 250,-36"/>
<text text-anchor="middle" x="194.5" y="-14.3" font-family="Times,serif" font-size="14.00" fill="#000000">Умнов младший</text>
</g>
<!-- node0x603000000040&#45;&gt;node0x6030000000d0 -->
<g id="edge2" class="edge">
<title>node0x603000000040&#45;&gt;node0x6030000000d0</title>
<path fill="none" stroke="#000000" d="M138.67,-86.8C148.72,-74.59 162.39,-57.99 173.68,-44.28"/>
<polygon fill="#000000" stroke="#000000" points="176.7,-46.12 180.36,-36.18 171.3,-41.67 176.7,-46.12"/>
<text text-anchor="middle" x="172" y="-57.8" font-family="Times,serif" font-size="14.00">да</text>
</g>
</g>
</svg>
